# xmcd CD database file
#
# Track frame offsets:
#	150
#	16998
#	40835
#	55388
#	73778
#	94714
#	115246
#	141347
#	156504
#	177920
#	196247
#	216244
#	239245
#	257250
#	277159
#	303235
#
# Disc length: 4333 seconds
#
# Revision: 1
# Processed by: cddbd v1.5.2PL0 Copyright (c) Steve Scherf et al.
# Submitted via: CDex 1.51
#
DISCID=f110eb10
DTITLE=Le Magreen - Rebel Devil
DYEAR=2007
DGENRE=Rock
TTITLE0=Are You Real?
TTITLE1=Rebel Devil
TTITLE2=Crying
TTITLE3=Love
TTITLE4=Supersoic Speed
TTITLE5=You Can Kiss Me Where The Sun Don´t Shine
TTITLE6=One By One
TTITLE7=20 Pads
TTITLE8=Times They May Pass
TTITLE9=Riders On The Storm
TTITLE10=Ticket To Ride
TTITLE11=Lego Man
TTITLE12=Automobile (Remastered)
TTITLE13=Kratere (Remastered)
TTITLE14=Times They May Pass (Steel Guitar)
TTITLE15=700 Guitars More (Remixed By Waz Experienxe)
EXTD=YEAR: 2007
EXTT0=
EXTT1=
EXTT2=
EXTT3=
EXTT4=
EXTT5=
EXTT6=
EXTT7=
EXTT8=
EXTT9=
EXTT10=
EXTT11=
EXTT12=
EXTT13=
EXTT14=
EXTT15=
PLAYORDER=
